<?xml version="1.0" encoding="utf-8"?>
<!-- Generator: Adobe Illustrator 26.1.0, SVG Export Plug-In . SVG Version: 6.00 Build 0)  -->
<svg version="1.1" id="Layer_1" xmlns="http://www.w3.org/2000/svg" xmlns:xlink="http://www.w3.org/1999/xlink" x="0px" y="0px"
	 viewBox="0 0 688.58 560" style="enable-background:new 0 0 688.58 560;" xml:space="preserve">
<style type="text/css">
	.st0{fill:#A03525;}
	.st1{font-family:'Tahoma';}
	.st2{font-size:110px;}
	.st3{font-size:129px;}
	.st4{fill:#FFDB1F;stroke:#A5A02B;stroke-width:3;stroke-miterlimit:10;}
</style>
<g>
	<text transform="matrix(0.9124 0 0 1 322.5806 265.6544)" class="st0 st1 st2">cheese</text>
	<text transform="matrix(1 0 0 1 327.9041 375.6877)" class="st0 st1 st3">stack</text>
</g>
<g>
	<path class="st4" d="M305.15,212.38c0.49-0.3,1.01-0.45,1.57-0.46v-28.92c-1-0.43-1.96-1.01-2.82-1.66
		c-2.25-1.69-4.32-4.01-5.21-7.05c-0.23-0.79-0.35-1.57-0.41-2.35c-0.07-0.07-0.11-0.12-0.18-0.2h-83.26
		c-0.53,0.07-1.07,0.14-1.6,0.25c-2.95,0.57-6.38,0.98-9.09,2.56c-1.92,1.11-3.31,3.1-5.11,4.43c-4.09,3.01-8.51,2.56-12.35-0.75
		c-4.29-3.7-10.53-2.25-13.76-5.74c-0.47-0.51-1.14-0.42-1.68-0.58c-0.32-0.09-0.64-0.16-0.97-0.16H59.63
		c-0.63,0.27-1.27,0.56-1.95,0.91c-2.52,1.31-4.97,2.42-7.73,2.75c-5.72,0.69-10.83-2.09-16.25-3.66H17.37
		c-3.17,0-5.75,2.58-5.75,5.76v5.68c1.34,1.72,2.41,3.76,2.68,6.1c0.34,3-0.74,5.76-2.68,7.54v30.97c0,1.56,1.26,2.82,2.81,2.82
		h44.77c0.29,0,0.39-0.14,0.6-0.19c7.96-1.89,15.15-5.25,23.37-5.7c8.57-0.47,17.05,0.89,25.2,4.1c0.98,0.38,1.71,1.02,2.23,1.79
		h105.47c4.34-3.45,9.06-5.34,14.56-4.64c4.63,0.59,8.98,2.63,13.3,4.64h59.97c1.55,0,2.81-1.26,2.81-2.82v-4.44
		c-0.17-0.03-0.33-0.06-0.43-0.09c-0.45-0.14-0.9-0.34-1.29-0.63c-0.39-0.28-0.77-0.64-1.1-0.99c-0.09-0.1-0.17-0.2-0.25-0.31
		c-0.58-0.69-0.98-1.5-1.2-2.44c-0.06-0.49-0.11-0.98-0.17-1.47c-0.06-1.47,0.55-2.85,1.37-3.91
		C304.07,212.99,304.57,212.61,305.15,212.38z M58.41,202.95c-0.49,4.34-3.48,8.1-7.37,7.72c-2.83-0.28-5.63-2.01-7.06-4.93
		c-0.57-0.43-1.09-1.02-1.51-1.79c-1.29-2.36-0.54-6.31,1.68-7.56c1.07-0.61,2.24-1.09,3.44-1.42c0.57-0.31,1.16-0.56,1.75-0.75
		c1.27-0.39,2.52-0.14,3.54,0.57C56.2,195.63,58.92,198.48,58.41,202.95z M212.26,203.36c-6.09,3.79-15.53,3.57-16.55-6.38
		c-0.3-2.98,2.38-5.53,4.67-5.53c0.01,0,0.03,0,0.04,0c2.15-1.14,4.56-1.88,6.88-1.7c4.23,0.33,7.07,3.84,7.27,8.83
		C214.64,200.44,213.64,202.5,212.26,203.36z M246.62,196.95c-0.6,5.29-4.95,7.85-9.09,6.54c-2.8-0.89-5.59-3.1-7.2-5.96
		c-1.45-2.57-0.35-6.02,1.68-7.56c1.13-0.86,2.41-0.95,3.58-0.51c1.45-0.49,3.05-0.64,4.36-0.55
		C243.69,189.15,247.18,192.04,246.62,196.95z M271.18,205.4c-4.39-0.24-8.9-3.83-8.86-9.46c-0.26-2.6,1.34-5.12,3.43-5.89
		c4.79-1.76,14.54-1.29,14.56,6.76C280.32,201.95,275.06,205.61,271.18,205.4z"/>
	<path class="st4" d="M306.36,276.49c-1.6-1.92-2.9-4.18-3.7-6.79c-1.82-5.93,0.08-11.23,3.7-14.99c0.01-0.01,0.01-0.02,0.01-0.03
		l0-5.43c0-1.56-1.26-2.82-2.8-2.82h-13.13c-0.04,0.05-0.07,0.1-0.11,0.15c-2.53,2.47-5.06,5.41-8.45,5.94
		c-3.89,0.6-6.94-2.28-9.3-5.61c-0.11-0.15-0.19-0.31-0.28-0.47h-95.75c0,0-0.01,0-0.01,0c-5.73,2.15-11.18,5.55-17.27,6.22
		c-6.27,0.69-11.25-3.09-16.51-6.22c-0.01,0-0.01,0-0.02,0H71.72c-0.03,0.21-0.07,0.41-0.14,0.6c-1.89,5.5-6.78,7.17-10.79,3.6
		c-0.61-0.54-0.88-0.97-1.66-2.37c-0.29-0.52-0.29-1.18-0.34-1.79c0-0.02-0.02-0.04-0.04-0.04H14.77c-1.55,0-2.8,1.26-2.8,2.82
		v27.08c0,0.02,0.01,0.03,0.02,0.04c1.5,0.82,2.87,1.94,3.74,3.65c1.2,2.34,1.11,5.22-0.06,7.54c-0.87,1.73-2.21,3.03-3.69,4.1
		c-0.01,0.01-0.02,0.02-0.02,0.04v4.96c0,4.77,3.85,8.64,8.6,8.64h43.44c0.01,0,0.02-0.01,0.03-0.02c1.92-3.42,5.25-5.82,8.75-6.08
		c2.46-0.18,4.93,0.77,6.67,2.85c0.74,0.88,1.3,2.05,1.77,3.22c0.01,0.01,0.02,0.02,0.03,0.02h71.14c0.01,0,0.02-0.01,0.03-0.01
		c3.85-4.01,4.46-4.61,7.96-4.89c1.48-0.12,2.77,0.52,3.85,1.39c2.65,2.14,5.68,3.51,8.89,3.51h60.48c0,0,0.01,0,0.01,0
		c3.2-1.42,6.01-3.92,9.35-5.04c3.98-1.34,8.28-1.31,12.36-0.77c9.05,1.19,17.59,5.94,26.79,5.51c0.67-0.03,1.27,0.09,1.79,0.31
		c0,0,0.01,0,0.01,0h16.72c3.17,0,5.73-2.58,5.73-5.76l0-23C306.37,276.51,306.37,276.5,306.36,276.49z M55.96,282.54
		c-1.06,2.33-3.14,3.59-5.31,3.76c-2.18,0.17-4.3-1.31-5.43-3.47c-1.12-2.15-1.14-4.93-0.5-7.27c0.39-1.42,1.1-2.5,2.15-3.3
		c0.97-0.74,2.18-0.86,3.3-0.63c0.28-0.05,0.57-0.08,0.87-0.11c1.31-0.11,2.77,0.45,3.67,1.6c0.34,0.44,0.66,0.96,0.94,1.47
		c0.69,1.26,0.99,2.65,1.09,4.12C56.82,280.03,56.49,281.39,55.96,282.54z M214.98,277.55c-0.42,1.19-1.08,1.88-1.91,2.64
		c-1.67,1.51-3.84,2.19-5.91,1.55c-1.71-0.53-3.03-1.94-4.24-3.38c-1.85-2.18-1.71-5.61,0-7.81c0.46-0.59,1.03-1,1.64-1.26
		c1.67-1.52,3.61-2.46,5.81-1.85c2.67,0.73,4.11,3.63,4.84,6.51C215.52,275.14,215.38,276.43,214.98,277.55z M248.86,276.75
		c-0.94,3.97-4.29,6.93-7.72,7.04c-3.09,0.1-6.11-2.06-7.32-5.44c-1.51-4.24,0.46-8.43,3.63-10.6c1.49-1.03,3.19-0.92,4.57-0.01
		c0.37-0.04,0.74-0.05,1.12-0.02c1.7,0.13,3.22,0.8,4.43,2.25C249.05,271.76,249.41,274.41,248.86,276.75z M282.29,283.68
		c-4.43,5.02-14.46,3.34-17.97-2.25c-1.46-2.32-0.39-6.28,1.68-7.56c1.36-0.84,2.78-1.46,4.23-1.9c2.92-2.12,7.59-2.61,10.53-0.66
		C284.49,273.79,285.47,280.07,282.29,283.68z"/>
	<path class="st4" d="M306.37,332.24v-2.93c0-4.77-3.85-8.64-8.6-8.64h-35.64c-3.18,2.52-6.15,5.53-9.93,6.54
		c-5.45,1.45-7.42-3.09-11.36-6.16c-0.16-0.12-0.3-0.25-0.44-0.38H129.17c-0.22,0.07-0.45,0.13-0.69,0.17
		c-6.48,1.03-12.17,5.41-18.77,6.14c-2.7,0.3-5.33,0.01-7.61-1.82c-1.42-1.14-2.4-3.21-3.71-4.48H17.7c-0.26,0-0.51,0.02-0.75,0.06
		c0.12,0.53,0.19,1.08,0.18,1.65c-0.01,3.03-1.72,5.67-4.13,6.59c-0.33,0.12-0.68,0.2-1.03,0.26v15.33
		c2.35,1.48,3.99,4.43,4.05,7.63c0.04,2.08-0.63,4.17-1.86,5.67c-0.66,0.81-1.4,1.36-2.2,1.75v16.46c1.97-0.66,4.1-0.45,5.97,0.79
		c1.04,0.69,1.98,1.63,2.79,2.67h64.59c2.54-0.65,5.07-1.36,7.56-2.23c7.84-2.74,14.64-5.01,22.93-3.9
		c7.18,0.96,14.06,3.5,20.91,6.13h118.86c6.94-6.81,16.6-10.02,25.43-7.01c3.93,1.34,7.02,3.91,9.76,7.01h12.8
		c1.55,0,2.8-1.26,2.8-2.82v-29.97c-0.92-0.64-1.75-1.43-2.43-2.47c-2.35-3.6-1.25-7.95,1.21-11
		C305.51,332.82,305.93,332.49,306.37,332.24z M64.57,351.35c-1.1,5.14-5.7,7.89-9.93,7.66c-4.85-0.27-8.47-3.9-9-9.65
		c-0.27-2.99,2.36-5.53,4.67-5.53c0.35,0,0.69,0.05,1,0.13c1.54-1.14,3.27-1.95,4.8-2.31C61.22,340.45,65.95,344.88,64.57,351.35z
		 M249.3,357.12c-1.75,3.38-5.7,5.69-9.01,4.45c-3.44-1.29-4.98-5.6-4.06-9.57c0.02-0.07,0.05-0.14,0.06-0.21
		c-0.18-1.69,0.28-3.49,1.29-4.72c2.87-3.48,7.64-4.39,10.69-0.64C250.57,349.24,251.05,353.75,249.3,357.12z M288.25,352.93
		c-1.91,3.74-6.42,4.99-9.86,4.55c-2.31-0.29-4.55-1.29-5.84-3.73c-0.44-0.83-0.69-1.72-0.8-2.62c-0.13-0.19-0.26-0.39-0.36-0.6
		c-1.38-2.8-0.33-5.76,1.68-7.56c2.53-2.27,6.78-2.75,9.79-2.24C287.7,341.55,291,347.55,288.25,352.93z"/>
</g>
</svg>
